<svg id="visual" viewBox="0 0 900 600" width="900" height="600" xmlns="http://www.w3.org/2000/svg" xmlns:xlink="http://www.w3.org/1999/xlink" version="1.1"><rect x="0" y="0" width="900" height="600" fill="#061a2a"></rect><defs><linearGradient id="grad1_0" x1="33.3%" y1="0%" x2="100%" y2="100%"><stop offset="20%" stop-color="#061a2a" stop-opacity="1"></stop><stop offset="80%" stop-color="#061a2a" stop-opacity="1"></stop></linearGradient></defs><defs><linearGradient id="grad2_0" x1="0%" y1="0%" x2="66.7%" y2="100%"><stop offset="20%" stop-color="#061a2a" stop-opacity="1"></stop><stop offset="80%" stop-color="#061a2a" stop-opacity="1"></stop></linearGradient></defs><g transform="translate(900, 0)"><path d="M0 459.7C-36.5 435.9 -73.1 412.1 -105.3 393.1C-137.6 374.2 -165.6 360 -201.5 349C-237.4 338 -281.1 330.2 -305.5 305.5C-329.9 280.8 -335 239.2 -358.5 207C-382.1 174.8 -424.1 151.9 -444 119C-464 86 -461.8 43 -459.7 0L0 0Z" fill="#339d38"></path></g><g transform="translate(0, 600)"><path d="M0 -459.7C33 -425 66 -390.4 100.9 -376.7C135.8 -363.1 172.7 -370.5 210 -363.7C247.3 -357 285.2 -336.1 305.5 -305.5C325.7 -274.8 328.3 -234.4 352.5 -203.5C376.7 -172.6 422.6 -151.3 444 -119C465.5 -86.7 462.6 -43.3 459.7 0L0 0Z" fill="#339d38"></path></g></svg>