<svg id="visual" viewBox="0 0 1920 1080" width="1920" height="1080" xmlns="http://www.w3.org/2000/svg" xmlns:xlink="http://www.w3.org/1999/xlink" version="1.1"><rect x="0" y="0" width="1920" height="1080" fill="#00210e"></rect><defs><linearGradient id="grad1_0" x1="43.8%" y1="0%" x2="100%" y2="100%"><stop offset="14.444444444444446%" stop-color="#00210e" stop-opacity="1"></stop><stop offset="85.55555555555554%" stop-color="#00210e" stop-opacity="1"></stop></linearGradient></defs><defs><linearGradient id="grad2_0" x1="0%" y1="0%" x2="56.3%" y2="100%"><stop offset="14.444444444444446%" stop-color="#00210e" stop-opacity="1"></stop><stop offset="85.55555555555554%" stop-color="#00210e" stop-opacity="1"></stop></linearGradient></defs><g transform="translate(1920, 0)"><path d="M0 918C-58.5 805 -116.9 691.9 -223.4 687.6C-329.9 683.3 -484.5 787.7 -539.6 742.7C-594.7 697.7 -550.4 503.2 -539.6 392.1C-528.8 280.9 -551.4 252.9 -620.1 201.5C-688.7 150 -803.4 75 -918 0L0 0Z" fill="#72fa3c"></path></g><g transform="translate(0, 1080)"><path d="M0 -918C70.7 -813.8 141.3 -709.6 220.3 -678.1C299.3 -646.6 386.7 -687.9 497.9 -685.2C609 -682.6 743.9 -636.1 742.7 -539.6C741.4 -443.1 604.1 -296.6 610.6 -198.4C617.1 -100.1 767.6 -50.1 918 0L0 0Z" fill="#72fa3c"></path></g></svg>