<svg xmlns="http://www.w3.org/2000/svg" version="1.1" xmlns:xlink="http://www.w3.org/1999/xlink" xmlns:svgjs="http://svgjs.dev/svgjs" viewBox="0 0 800 800" opacity="0.65"><g stroke-width="4" stroke="hsl(0, 0%, 98%)" fill="none"><path d="M738.3295695396348 231.42444050896074C769.899178277557 360.57900532416807 735.1716882764313 557.1989833108485 661.2691570271007 667.7248069151664C587.3666257777702 778.2506305194843 494.9980144578851 771.7107626173929 383.59741954284755 761.9483938096873C272.1968246278101 752.1860250019818 194.60352418637308 709.5988059167148 126.54630143491977 620.8654366381788C58.4890786834664 532.1320673596429 37.47255419606864 446.1512718220216 56.92275033587066 336.02822127271486C76.37294647567273 225.9051707234081 125.57135024988497 152.3259034745348 219.90724290596893 92.27479400150492C314.2431355620529 32.22368452847496 401.7303837030588 18.793386113117435 509.7350350850727 47.7828958021704C617.7396864670867 76.77240549122337 706.7599608017126 102.26987569375353 738.3295695396348 231.42444050896074C769.899178277557 360.57900532416807 735.1716882764313 557.1989833108485 661.2691570271007 667.7248069151664 "></path><path d="M724.7963940822683 238.16743969524305C755.1032184706735 362.155821917842 721.7648280695928 550.9110007850552 650.8183980702356 657.0157914452004C579.8719680708781 763.1205821053456 491.1981012037884 756.8423089193377 384.2535300853524 747.4704348639407C277.3089589669164 738.0985608085432 202.81939054313693 697.2148304866868 137.48445670174175 612.0307959792924C72.14952286034651 526.8467614718978 51.973659352444656 444.30519775578136 70.6458476466546 338.5870692284468C89.31803594086455 232.86894070111236 136.54850356410827 162.2328441421941 227.11096051394895 104.58377904808532C317.6734174637895 46.9347139539766 401.66117567915524 34.04162747523338 505.34564100588864 61.87155677672422C609.0301063326219 89.70148607821505 694.4895696938628 114.17905747264399 724.7963940822683 238.16743969524305C755.1032184706735 362.155821917842 721.7648280695928 550.9110007850552 650.8183980702356 657.0157914452004 "></path><path d="M711.2632186249015 244.91049991668137C740.30725866379 363.73269954667217 708.3579678627544 544.6230792944181 640.3676391133703 646.3068370103905C572.377310363986 747.990594726363 487.39818794969176 741.9739162564388 384.90964062785724 732.9925369533498C282.42109330602284 724.0111576502609 211.0352568999008 684.8309160918151 148.42261196856367 603.196216355562C85.80996703722656 521.5615166193088 66.47476450882061 442.45918472469725 84.36894495743854 341.1459782193351C102.26312540605642 239.832771713973 147.5256568783317 172.13984584500952 234.31467812192886 116.89282512982197C321.10369936552615 61.64580441463448 401.59196765525166 49.28992987250558 500.95624692670447 75.96027878643429C600.3205261981573 102.630627700363 682.2191785860131 126.0883002866907 711.2632186249015 244.91049991668137C740.30725866379 363.73269954667217 708.3579678627544 544.6230792944181 640.3676391133703 646.3068370103905 "></path><path d="M697.7300431675349 251.6535296205417C725.5112988569064 365.3095466579241 694.9511076559158 538.3351272862028 629.9168801565049 635.5978520580027C564.882652657094 732.8605768298025 483.59827469559514 727.1054930759618 385.5657511703621 718.5146085251812C287.53322764512905 709.9237239744003 219.25112325666464 672.4469711793653 159.36076723538565 594.3616062142536C99.47041121410666 516.276241249142 80.97586966519663 440.61314117603524 98.09204226822243 343.7048566926453C115.20821487124823 246.79657220925537 158.502810192555 182.04681703024693 241.5183957299089 129.20184069398056C324.5339812672628 76.35686435771419 401.522759631348 64.5382017521996 496.5668528475203 90.04897027856623C591.6109460636925 115.5597388049328 669.9487874781632 137.99751258315933 697.7300431675349 251.6535296205417C725.5112988569064 365.3095466579241 694.9511076559158 538.3351272862028 629.9168801565049 635.5978520580027 "></path><path d="M684.1968371925901 258.39649828924576C710.7153085324447 366.88633273402 681.5442169314991 532.0471142428315 619.4660906820616 624.8888060704586C557.3879644326238 717.7304978980856 479.7983309239204 712.2370088603288 386.2218311952888 704.0366190618562C292.64533146665735 695.8362292633835 227.4669590958503 660.0629652317592 170.29889198462945 585.526935037789C113.13082487340864 510.9909048438187 95.47694430399451 438.767036592217 111.81510906142825 346.26367413079925C128.15327381886198 253.7603116693815 169.47993298920022 191.95372718032803 248.7220828203108 141.5107952229829C327.9642326514213 91.0678632656377 401.4535210898663 79.78641259673742 492.177428250758 104.13760073554192C582.9013354116496 128.48878887434637 657.6783658527354 149.90666384447172 684.1968371925901 258.39649828924576C710.7153085324447 366.88633273402 681.5442169314991 532.0471142428315 619.4660906820616 624.8888060704586 "></path><path d="M670.6636617352234 265.1395585106842C695.9193487255612 368.4632103628501 668.1373567246608 525.7591927521944 609.0153317251962 614.1798516356487C549.8933067257318 702.6005105191031 475.99841766982365 697.3686161974299 386.87794173779366 689.5587211512654C297.7574658057637 681.748826105101 235.6828254526141 647.6790508368874 181.23704725145143 576.6923554140587C126.79126905028875 505.7056599912298 109.97804946037053 436.92102356113287 125.53820637221219 348.82258312168744C141.0983632840538 260.724142682242 180.45708630342358 201.8607288831435 255.92580042829076 153.81984130471955C331.39451455315793 105.77895372629558 401.3843130659627 95.03471499400956 487.7880341715738 118.22632274525193C574.1917552771849 141.4179304964943 645.4079747448856 161.81590665851843 670.6636617352234 265.1395585106842C695.9193487255612 368.4632103628501 668.1373567246608 525.7591927521944 609.0153317251962 614.1798516356487 "></path><path d="M657.1304862778568 271.8825576969664C681.1233889186776 370.0400269565239 654.7304965178222 519.4712102264011 598.5645727683309 603.4708361656826C542.3986490188397 687.4704621049643 472.19850441572703 682.5001624993748 387.5340522802985 675.0807622055187C302.86960014487 667.6613619116624 243.89869180937797 635.2950754068595 192.1752025182734 567.8577147551721C140.45171322716885 500.4203541034849 124.47915461674654 435.0749494948926 139.26130368299607 351.3814310774195C154.04345274924566 267.6879126599464 191.43423961764694 211.76766955080274 263.1295180362707 166.12882635129995C334.82479645489457 120.48998315179722 401.31510504205903 110.28295635612551 483.39864009238977 132.31498371980575C565.4821751427203 154.347011083486 633.137583637036 173.72508843740889 657.1304862778568 271.8825576969664C681.1233889186776 370.0400269565239 654.7304965178222 519.4712102264011 598.5645727683309 603.4708361656826 "></path><path d="M643.5973108204901 278.62561791840494C666.3274291117942 371.6169045853542 641.3236363109837 513.1832887357641 588.1138138114657 592.7618817308729C534.9039913119477 672.3404747259818 468.3985911616303 667.631769836476 388.19016282280336 660.602864294928C307.9817344839764 653.5739587533801 252.11455816614176 622.9111610119878 203.11335778509533 559.0231351314419C154.1121574040489 495.135109250896 138.98025977312255 433.2289364638086 152.98440099378 353.9403400683078C166.98854221443747 274.65174367280696 202.4113929318703 221.67467125361821 270.33323564425075 178.43787243303666C338.2550783566312 135.2010736124551 401.24589701815546 125.53125875339771 479.0092460132055 146.40370572951582C556.7725950082556 167.27615270563393 620.8671925291862 185.63433125145565 643.5973108204901 278.62561791840494C666.3274291117942 371.6169045853542 641.3236363109837 513.1832887357641 588.1138138114657 592.7618817308729 "></path><path d="M630.0641353631236 285.3686171046871C651.5314693049106 373.193721179028 627.9167761041451 506.8953062099707 577.6630548546004 582.052866260907C527.4093336050556 657.2104263118431 464.5986779075338 652.7633161384208 388.8462733653082 646.1249053491811C313.09386882308274 639.4864945599414 260.3304245229056 610.5271855819599 214.0515130519173 550.1884944725554C167.772601580929 489.84980336315095 153.48136492949857 431.3828623975684 166.70749830456396 356.49918802403977C179.93363167962934 281.6155136505112 213.38854624609365 231.58161192127744 277.5369532522308 190.74685747961706C341.68536025836784 149.91210303795674 401.1766889942519 140.7795001155136 474.6198519340214 160.49236670406964C548.0630148737908 180.20523329262562 608.5968014213363 197.54351303034616 630.0641353631236 285.3686171046871C651.5314693049106 373.193721179028 627.9167761041451 506.8953062099707 577.6630548546004 582.052866260907 "></path><path d="M616.5309446469678 292.1116468085474C636.735494239238 374.77056829028004 614.5099006385176 500.60735420175547 567.2122806389461 571.343881308519C519.9146606393745 642.0804084152825 460.798749394648 637.8948929579439 389.502368649024 631.6469769210123C318.2059879034 625.3990608840809 268.54627562088035 598.14324066951 224.98965305995023 541.353884331247C181.43303049902005 484.5645279929839 167.98245482708546 429.53681884890625 180.43058035655878 359.05806649734996C192.8787058860321 288.57931414579366 224.36568430152795 241.4885831065148 284.7406556014217 203.05587304377565C345.1156269013154 164.62316298103644 401.10746571155926 156.02777199520767 470.2304425960481 174.58105819620158C539.353419480537 193.1343443971955 596.3263950546975 209.45272532681474 616.5309446469678 292.1116468085474C636.735494239238 374.77056829028004 614.5099006385176 500.60735420175547 567.2122806389461 571.343881308519 "></path><path d="M602.9977691896012 298.8546765124077C621.9395344323545 376.3474154015321 601.1030404316791 494.3194021935403 556.7615216820808 560.6348963561311C512.4200029324825 626.9503905187219 456.99883614055136 623.0264697774669 390.15847919152884 617.1690484928437C323.3181222425063 611.3116272082204 276.7621419776442 585.7592957570602 235.92780832677215 532.5192741899386C195.09347467590015 479.279252622817 182.48355998346148 427.69077530024424 194.15367766734272 361.61694497066014C205.82379535122396 295.5431146410761 235.3428376157513 251.39555429175215 291.94437320940165 215.36488860793418C348.54590880305204 179.3342229241162 401.0382576876557 171.27604387490175 465.841048516864 188.66974968833352C530.6438393460724 206.0634555017653 584.0560039468478 221.36193762328332 602.9977691896012 298.8546765124077C621.9395344323545 376.3474154015321 601.1030404316791 494.3194021935403 556.7615216820808 560.6348963561311 "></path><path d="M589.4645632146564 305.597706216268C607.1435441078928 377.924262512784 587.6961497072625 488.0314501853252 546.3107322076373 549.9259114037432C504.92531470801214 611.8203726221612 453.1988923688766 608.1580465969901 390.81455921645556 602.6911200646749C328.43022606403457 597.2241935323598 284.97797781682993 573.3753508446102 246.865933076016 523.6846640486301C208.75388833520213 473.99397725265 196.98463462225936 425.8447317515821 207.87674446054854 364.17582344397033C218.76885429883765 302.50691513635854 246.31996041239654 261.3025254769895 299.14806029980355 227.67390417209276C351.97616018721055 194.04528286719597 400.9690191461739 186.52431575459576 461.4516239201016 202.7584411804654C521.9342286940295 218.99256660633512 571.78558232142 233.27114991975196 589.4645632146564 305.597706216268C607.1435441078928 377.924262512784 587.6961497072625 488.0314501853252 546.3107322076373 549.9259114037432 "></path><path d="M575.9313877572897 312.3407206613393C592.3475843010094 379.5010943652471 574.289289500424 481.743482918321 535.8599732507721 539.2169111925662C497.43065700112015 596.6903394668116 449.3989791147799 593.2896081577239 391.4706697589604 588.2131763777171C333.54236040314095 583.1367445977103 293.19384417359373 560.9913906733714 257.804088342838 514.8500386485326C222.41433251208218 468.7086866236939 211.48573977863538 423.99867294413093 221.59984177133242 366.73468665849134C231.71394376402952 309.47070037285187 257.29711372661984 271.2094814034378 306.3517779077835 239.98290447746223C355.4064420889472 208.75632755148666 400.8998111222703 201.77257237550077 457.06222984091755 216.8471174138083C513.2246485595647 231.92166245211587 559.5151912135702 245.18034695743154 575.9313877572897 312.3407206613393C592.3475843010094 379.5010943652471 574.289289500424 481.743482918321 535.8599732507721 539.2169111925662 "></path><path d="M562.3981970411342 319.0837198476215C577.5516092353367 381.07791095892094 560.8824140347964 475.4555003925276 525.4091990351178 528.5078957226002C489.9359840354391 581.5602910526728 445.5990506018942 578.4211544596689 392.1267650426762 573.7352174319703C338.6544794834582 569.0492804042716 301.40969527156847 548.6074152433434 268.74222835087085 506.0153979896462C236.07476143017323 463.42338073594897 225.98682967622233 422.1525988778907 235.3229238233273 369.2935346142234C244.65901797043227 316.4344703505562 268.27425178205414 281.116422071097 313.5554802569745 252.2918895240427C358.83670873189476 223.4673569769883 400.8305878395777 217.02081373761666 452.6728205029443 230.9357783883621C504.51505316631096 244.85074303910756 547.2447848469315 257.089528736322 562.3981970411342 319.0837198476215C577.5516092353367 381.07791095892094 560.8824140347964 475.4555003925276 525.4091990351178 528.5078957226002 "></path><path d="M548.8650215837674 325.8267495514818C562.7556494284531 382.654758070173 547.4755538279579 469.16754838431234 514.9584400782525 517.7989107702123C482.441326328547 566.4302731561122 441.79913734779757 563.5527312791919 392.78287558518105 559.2572890038016C343.7666138225645 554.961846728411 309.6255616283323 536.2234703308936 279.6803836176928 497.1807878483378C249.73520560705333 458.13810536578194 240.48793483259834 420.30655532922856 249.04602113411124 371.8524130875336C257.60410743562414 323.3982708458386 279.2514050962775 291.0233932563344 320.75919786495444 264.6009050882012C362.2669906336314 238.17841692006806 400.761379815674 232.26908561731074 448.28342642376015 245.02446988049405C495.8054730318463 257.77985414367737 534.9743937390816 268.99874103279063 548.8650215837674 325.8267495514818C562.7556494284531 382.654758070173 547.4755538279579 469.16754838431234 514.9584400782525 517.7989107702123 "></path><path d="M535.3318461264007 332.5697792553421C547.9596896215696 384.23160518142504 534.0686936211195 462.8795963760972 504.5076811213871 507.08992581782434C474.9466686216549 551.3002552595515 437.99922409370083 548.684308098715 393.4389861276859 544.7793605756327C348.8787481616709 540.8744130525505 317.8414279850961 523.8395254184437 290.6185388845148 488.34617770702937C263.39564978393344 452.8528299956149 254.9890399889743 418.46051178056643 262.7691184448951 374.4112915608437C270.54919690081596 330.362071341121 290.22855841050085 300.9303644415717 327.96291547293447 276.90992065235974C365.69727253536803 252.88947686314782 400.6921717917704 247.5173574970048 443.894032344576 259.113161372626C487.09589289738153 270.7089652482472 522.7040026312318 280.9079533292592 535.3318461264007 332.5697792553421C547.9596896215696 384.23160518142504 534.0686936211195 462.8795963760972 504.5076811213871 507.08992581782434 "></path><path d="M521.798655410245 339.3127937004134C533.1637145558971 385.808437033888 520.6618181554918 456.591629109093 494.05690690573283 496.38092560664745C467.45199565597386 536.1702221042019 434.19929558081515 533.8158696594489 394.0950814114017 530.301416888675C353.9908672419882 526.786964117901 326.0572790830709 511.45556524720485 301.55667889254767 479.5115523069319C277.0560787020245 447.56753936665893 269.49012988656125 416.61445297311525 276.49220049689 376.97015477536485C283.49427110721876 337.32585657761445 301.20569646593515 310.8373203680201 335.1666178221254 289.21892095772927C369.1275391783156 267.60052154743846 400.62294850907773 262.76561411790976 439.50462300660274 273.2018376059689C478.3862975041278 283.63806109402793 510.4335962645931 292.8171503669388 521.798655410245 339.3127937004134C533.1637145558971 385.808437033888 520.6618181554918 456.591629109093 494.05690690573283 496.38092560664745 "></path><path d="M508.2654799528784 346.0558234042737C518.3677547490136 387.38528414514 507.2549579486533 450.30367710087774 483.6061479488676 485.6719406542595C459.95733794908176 521.0402042076412 430.3993823267185 518.9474464789719 394.7511919539065 515.8234884605062C359.10300158109453 512.6995304420404 334.2731454398347 499.0716203347549 312.49483415936965 470.6769421656235C290.7165228789046 442.282263996492 283.99123504293726 414.7684094244531 290.21529780767395 379.529033248675C296.4393605724106 344.28965707289683 312.1828497801585 320.7442915532574 342.37033543010534 301.5279365218878C372.55782108005224 282.3115814905182 400.55374048517416 278.01388599760384 435.11522892741857 287.29052909810076C469.67671736966304 296.56717219859775 498.1632051567433 304.7263626634074 508.2654799528784 346.0558234042737C518.3677547490136 387.38528414514 507.2549579486533 450.30367710087774 483.6061479488676 485.6719406542595 "></path><path d="M494.73228923672275 352.79885310813404C503.571779683341 388.962131256392 493.8480824830258 444.0157250926626 473.1553737332132 474.9629557018716C452.4626649834006 505.9101863110807 426.59945381383284 504.07902329849503 395.4072872376223 501.3455600323375C364.2151206614118 498.6120967661799 342.4889965378095 486.6876754223051 323.43297416740256 461.84233202431506C304.37695179699557 436.996988626325 298.4923249405242 412.92236587579106 303.93837985966877 382.08791172198517C309.3844347788134 351.2534575681793 323.1599878355928 330.6512627384948 349.5740377792963 313.8369520860464C375.9880877229998 297.022641433598 400.48451720248147 293.2621578772979 430.72581958944534 301.3792205902327C460.9671219764093 309.49628330316756 485.8927987901045 316.63557495987595 494.73228923672275 352.79885310813404C503.571779683341 388.962131256392 493.8480824830258 444.0157250926626 473.1553737332132 474.9629557018716 "></path><path d="M481.19911377935614 359.5418675532053C488.7758198764575 390.538963108855 480.4412222761873 437.72775782565833 462.70461477634797 464.2539554906946C444.9680072765086 490.7801531557309 422.79954055973616 489.2105848592289 396.06339778012716 486.8676163453797C369.32725500051816 484.5246478315303 350.7048628945733 474.30371525106625 334.3711294342245 453.00770662421763C318.0373959738757 431.711697997369 312.9934300969002 411.0763070683399 317.6614771704527 384.64677493650623C322.3295242440052 358.21724280467265 334.13714114981616 340.55821866494307 356.7777553872763 326.14595239141585C379.41836962473644 311.7336861178887 400.4153091785779 308.51041449820286 426.3364255102612 315.4678968235756C452.25754184194454 322.4253791489483 473.6224076822548 328.54477199755553 481.19911377935614 359.5418675532053C488.7758198764575 390.538963108855 480.4412222761873 437.72775782565833 462.70461477634797 464.2539554906946 "></path><path d="M467.66592306320035 366.2848972570656C473.9798448107848 392.11581022010705 467.0343468105597 431.43980581744313 452.25384056069356 453.5449705383067C437.47333431082745 475.65013525917027 418.9996120468504 474.34216167875206 396.71949306384295 472.38968791721095C374.4393740808355 470.43721415566984 358.9207139925481 461.9197703386164 345.3092694422574 444.1730964829092C331.6978248919667 426.426422627202 327.4945199944872 409.23026351967775 331.3845592224476 387.2056534098164C335.274598450408 365.18104329995504 345.11427920525045 350.4651898501804 363.98145773646723 338.45496795557443C382.848636267684 326.44474606096844 400.3460858958852 323.75868637789694 421.947016172288 329.55658831570753C443.54794644869077 335.3544902535181 461.3520013156159 340.45398429402417 467.66592306320035 366.2848972570656C473.9798448107848 392.11581022010705 467.0343468105597 431.43980581744313 452.25384056069356 453.5449705383067 "></path><path d="M454.13274760583374 373.02791170213686C459.1838850039013 393.69264207257004 453.6274866037212 425.15183855043887 441.80308160382833 442.83597032712976C429.9786766039354 460.5201021038206 415.1996987927538 459.47372323948593 397.3756036063478 457.9117442302531C379.5515084199418 456.3497652210202 367.1365803493119 449.53581016737746 356.2474247090793 435.33847108281174C345.3582690688468 421.141131998246 341.9956251508632 407.38420471222656 345.1076565332315 389.7645166243375C348.2196879155998 372.1448285364484 356.09143251947376 360.3721457766287 371.1851753444472 350.7639682609439C386.27891816942065 341.15579074525914 400.2768778719816 339.0069429988019 417.5576220931038 343.6452645490504C434.83836631422605 348.2835860992989 449.0816102077662 352.3631813317037 454.13274760583374 373.02791170213686C459.1838850039013 393.69264207257004 453.6274866037212 425.15183855043887 441.80308160382833 442.83597032712976 "></path><path d="M440.59955688967807 379.7709414059972C444.38790993822874 395.26948918382203 440.22061113809366 418.86388654222367 431.352307388174 432.1269853747418C422.4840036382543 445.39008420726 411.3997702798681 444.605300059009 398.0316988900636 443.4338158020844C384.66362750025905 442.26233154515967 375.3524314472867 437.15186525492766 367.18556471711224 426.5038609415034C359.01869798693787 415.85585662807904 356.4967150484501 405.5381611635645 358.83073858522636 392.3233950976477C361.1647621220026 379.10862903173086 367.06857057490805 370.27911696186607 378.38887769363816 363.0729838251025C389.7091848123682 355.86685068833884 400.20765458928895 354.25521487849596 413.1682127551306 357.73395604118235C426.1287709209723 361.2126972038687 436.8112038411274 364.27239362817227 440.59955688967807 379.7709414059972C444.38790993822874 395.26948918382203 440.22061113809366 418.86388654222367 431.352307388174 432.1269853747418 "></path><path d="M427.0663814323114 386.51395585106843C429.5919501313452 396.846321036285 426.81375093125513 412.57591927521946 420.9015484313087 421.4179851635649C414.9893459313622 430.2600510519103 407.5998570257714 429.73686161974297 398.68780943256843 428.95587211512657C389.77576183936543 428.1748826105101 383.5682978040505 424.76790508368873 378.1237199839342 417.6692355414059C372.6791421638179 410.570565999123 370.9978202048261 403.6921023561133 372.5538358960103 394.88225831216874C374.10985158719444 386.0724142682242 378.0457238891314 380.18607288831436 385.59259530161813 375.38198413047195C393.13946671410486 370.57789537262954 400.1384465653853 369.503471499401 408.77881867594647 371.8226322745252C417.41919078650756 374.14179304964944 424.5408127332776 376.18159066585184 427.0663814323114 386.51395585106843C429.5919501313452 396.846321036285 426.81375093125513 412.57591927521946 420.9015484313087 421.4179851635649 "></path><path d="M413.5331754573666 393.2569702961397C414.7959598068835 398.42315288874795 413.40686020683853 406.2879520082152 410.4507589568653 410.7089849523879C407.49465770689204 415.1300178965606 403.7999132540967 414.86842318047695 399.34388945749515 414.47792842816875C394.8878656608937 414.0874336758605 391.7841336432362 412.38394491244986 389.061844733178 408.8346101413084C386.3395558231199 405.28527537016697 385.498894843624 401.8460435486621 386.27690268921606 397.44112152668987C387.0549105348082 393.03619950471756 389.02284668577664 390.09302881476265 392.79628239202003 387.6909844358415C396.56971809826337 385.28894005692024 400.0692080239036 384.7517281203059 404.38939407918417 385.91130850786806C408.7095801344647 387.0708888954302 412.2703911078498 388.0907877035314 413.5331754573666 393.2569702961397C414.7959598068835 398.42315288874795 413.40686020683853 406.2879520082152 410.4507589568653 410.7089849523879 "></path></g></svg>