<svg xmlns="http://www.w3.org/2000/svg" version="1.1" xmlns:xlink="http://www.w3.org/1999/xlink" xmlns:svgjs="http://svgjs.dev/svgjs" viewBox="0 0 800 800" opacity="0.65"><defs><linearGradient x1="50%" y1="0%" x2="50%" y2="100%" id="uundulate-grad"><stop stop-color="hsl(30, 100%, 50%)" stop-opacity="1" offset="45%"></stop><stop stop-color="hsl(138, 100%, 70%)" stop-opacity="1" offset="100%"></stop></linearGradient></defs><g stroke-width="3" stroke="url(#uundulate-grad)" fill="none"><path d="M712.7733017842897 17.801518355452004C800.0532842579664 173.1637537530661 722.9114036790143 699.2657282349712 594.70317807124 823.0311127932364C466.494952463466 946.7964973515013 184.65380134065254 767.2375996327391 97.37381886697602 611.8753642351251C10.093836393299512 456.513128837511 47.551036589817386 201.05776744295258 175.7592621975914 77.29238288468753C303.9674878053654 -46.473001673577585 625.4933193106132 -137.56071704216203 712.7733017842897 17.801518355452004C800.0532842579664 173.1637537530661 722.9114036790143 699.2657282349712 594.70317807124 823.0311127932364 "></path><path d="M700.262368492215 33.0894307657652C784.0511516669444 182.23717674747468 709.9949463111503 687.2950722501037 586.9150497276873 806.1098414260382C463.83515314422425 924.9246106019727 193.26764806632332 752.5480687919608 109.47886489159384 603.4003228102513C25.690081716864427 454.2525768285418 61.64899390552159 209.01542988976576 184.72889048898463 90.20066071383127C307.80878707244767 -28.614108462103218 616.4735853174856 -116.05831521594428 700.262368492215 33.0894307657652C784.0511516669444 182.23717674747468 709.9949463111503 687.2950722501037 586.9150497276873 806.1098414260382 "></path><path d="M687.7514352001403 48.37740421123459C768.0490190759228 191.31066077703952 697.0784889432866 675.3244773003923 579.1269213841347 789.1886310939963C461.1753538249825 903.0527848876 201.8814947919941 737.8585989863386 121.58391091621172 594.9253424205338C41.286327040429285 451.9920858547289 75.74695122122574 216.97315337173518 193.6985187803778 103.10899957813126C311.65008633952993 -10.755154215472658 607.453851324358 -94.55585235457028 687.7514352001403 48.37740421123459C768.0490190759228 191.31066077703952 697.0784889432866 675.3244773003923 579.1269213841347 789.1886310939963 "></path><path d="M675.2405019080657 63.66531662154779C752.046886484901 200.3840837714481 684.162031575423 663.3538213155248 571.3387930405819 772.2673597267981C458.51555450574074 881.1808981380714 210.49534151766488 723.1690681455602 133.68895694082954 586.45030099566C56.8825723639942 449.7315338457597 89.84490853692995 224.93081581854835 202.66814707177105 116.017277407275C315.4913856066122 7.103738996001709 598.4341173312303 -73.05345052835258 675.2405019080657 63.66531662154779C752.046886484901 200.3840837714481 684.162031575423 663.3538213155248 571.3387930405819 772.2673597267981 "></path><path d="M662.7295380984128 78.95329006701718C736.044723376301 209.45756780101306 671.2455436899812 651.3832263658134 563.550634179451 755.3461493947561C455.85572466892086 859.3090724236988 219.10915772575754 708.4795983399385 145.79397244786924 577.9753206059426C72.47878716998099 447.4710428719468 103.94283533505597 232.88853930051778 211.63774484558616 128.925616271575C319.33265435611634 24.962693242632326 589.4143528205245 -51.550987666978585 662.7295380984128 78.95329006701718C736.044723376301 209.45756780101306 671.2455436899812 651.3832263658134 563.550634179451 755.3461493947561 "></path><path d="M650.2186353239161 94.24117195975225C720.0426213028574 218.53096027784352 658.3291168396956 639.4125398633677 555.7625363534764 738.4248475099798C453.1959558672572 837.4371551565919 227.72303496900645 693.790036981582 157.89904899006518 569.5002486634907C88.07506301112397 445.2104603453995 118.0408231683383 240.8461712297527 220.60740365455752 141.83386358314067C323.1739841407767 42.82155593652857 580.3946493449749 -30.048616358339018 650.2186353239161 94.24117195975225C720.0426213028574 218.53096027784352 658.3291168396956 639.4125398633677 555.7625363534764 738.4248475099798 "></path><path d="M637.7077020318414 109.5291454052217C704.0404887118357 227.60444430740836 645.4126594718321 627.4419449136564 547.9744080099238 721.5036371779379C450.53615654801547 815.5653294422193 236.33688169467723 679.1005671759599 170.00409501468306 561.0252682737732C103.67130833468889 442.9499693715866 132.13878048404246 248.80389471172214 229.5770319459507 154.74220244744066C327.015283407859 60.68051018315913 571.3749153518472 -8.546153496965019 637.7077020318414 109.5291454052217C704.0404887118357 227.60444430740836 645.4126594718321 627.4419449136564 547.9744080099238 721.5036371779379 "></path><path d="M625.1967687397668 124.81705781553484C688.0383561208138 236.67786730181695 632.4962021039682 615.4712889287888 540.186279666371 704.5823658107396C447.8763572287737 793.6934426926905 244.950728420348 664.4110363351815 182.10914103930088 552.5502268488995C119.26755365825375 440.6894173626174 146.23673779974666 256.7615571585353 238.54666023734393 167.6504802765844C330.85658267494125 78.5394033946335 562.3551813587196 12.95624832925273 625.1967687397668 124.81705781553484C688.0383561208138 236.67786730181695 632.4962021039682 615.4712889287888 540.186279666371 704.5823658107396 "></path><path d="M612.6858354476919 140.10503126100423C672.0362235297921 245.75135133138178 619.5797447361045 603.5006939790774 532.3981513228182 687.6611554786977C445.21655790953196 771.8216169783179 253.56457514601874 649.7215665295595 194.2141870639187 544.0752464591819C134.86379898181866 438.42892638880437 160.3346951154508 264.7192806405046 247.51628852873716 180.5588191408844C334.6978819420235 96.39835764126411 553.335447365592 34.45871119062667 612.6858354476919 140.10503126100423C672.0362235297921 245.75135133138178 619.5797447361045 603.5006939790774 532.3981513228182 687.6611554786977 "></path><path d="M600.1749021556172 155.39297418889555C656.0340909387703 254.8248048433685 606.6632873682408 591.5300685117879 524.6100229792655 670.7399146290776C442.5567585902902 749.9497607463672 262.1784218716895 635.0320662063593 206.31923308853652 535.6002355518863C150.46004430538358 436.1684048974132 174.43265243115502 272.6769736048959 256.48591682013034 193.46712748760626C338.53918120910566 114.2572813703166 544.3157133724644 55.96114353442255 600.1749021556172 155.39297418889555C656.0340909387703 254.8248048433685 606.6632873682408 591.5300685117879 524.6100229792655 670.7399146290776 "></path><path d="M587.6639688635426 170.6808865992087C640.0319583477485 263.89822783777714 593.7468300003773 579.5594125269204 516.8218946357129 653.8186432618794C439.89695927104844 728.0778739968384 270.7922685973603 620.3425353655809 218.4242791131544 527.1251941270125C166.05628962894843 433.90785288844404 188.53060974685917 280.6346360517091 265.4555451115236 206.37540531675C342.38048047618804 132.11617458179097 535.2959793793367 77.4635453606403 587.6639688635426 170.6808865992087C640.0319583477485 263.89822783777714 593.7468300003773 579.5594125269204 516.8218946357129 653.8186432618794 "></path><path d="M575.1530355714679 185.9688295271C624.0298257567267 272.97168134976386 580.8303726325136 567.5887870596307 509.03376629216007 636.8974024122592C437.2371599518067 706.2060177648876 279.40611532303103 605.6530350423807 230.52932513777222 518.6501832197168C181.65253495251335 431.647331397053 202.62856706256338 288.5923290161004 274.4251734029168 219.28371366347187C346.2217797432702 149.9750983108434 526.276245386209 98.96597770443617 575.1530355714679 185.9688295271C624.0298257567267 272.97168134976386 580.8303726325136 567.5887870596307 509.03376629216007 636.8974024122592 "></path><path d="M562.6421175381822 201.25678771378034C608.027708424494 282.0451501205397 567.9139305234389 555.6181768511303 501.24565320739634 619.9761768214282C434.577375891354 684.3341767917261 288.0199773074909 590.9635499779697 242.6343864211791 510.17518757121036C197.24879553486733 429.386825164451 216.7265396370566 296.55003723928064 283.39481695309905 232.1920372689828C350.0630942691416 167.83403729868496 517.2565266518704 120.46842530702105 562.6421175381822 201.25678771378034C608.027708424494 282.0451501205397 567.9139305234389 555.6181768511303 501.24565320739634 619.9761768214282 "></path><path d="M550.1311842461075 216.54473064167166C592.0255758334722 291.1186036325264 554.9974731555751 543.6475513838409 493.4575248638437 603.0549359718082C431.9175765721121 662.4623205597754 296.63382403316166 576.2740496547694 254.73943244579692 501.7001766639147C212.84504085843218 427.12630367305997 230.8244969527608 304.50773020367194 292.3644452444923 245.10034561570467C353.90439353622384 185.69296102773745 508.23679265874284 141.97085765081692 550.1311842461075 216.54473064167166C592.0255758334722 291.1186036325264 554.9974731555751 543.6475513838409 493.4575248638437 603.0549359718082 "></path><path d="M537.6202509540328 231.83265831077387C576.0234432424505 300.19204188572405 542.0810157877115 531.6769106577624 485.669396520291 586.133679863399C429.25777725287037 640.5904490690357 305.24767075883244 561.5845340727801 266.84447847041474 493.22515049783C228.4412861819971 424.86576692287986 244.92245426846495 312.4654079092742 301.3340735358855 258.00863870363753C357.7456928033061 203.55186949800088 499.2170586656151 163.47327473582374 537.6202509540328 231.83265831077387C576.0234432424505 300.19204188572405 542.0810157877115 531.6769106577624 485.669396520291 586.133679863399 "></path><path d="M525.1093329207472 247.12061649745425C560.0213259102177 309.2655106564999 529.1645736786369 519.706300449262 477.8812834355273 569.212454272568C426.5979931924177 618.7186080958741 313.8615327432923 546.8950490083691 278.9495397538217 484.7501548493235C244.03754676435108 422.6052606902779 259.0204268429582 320.4231161324545 310.3037170860678 270.91696230914846C361.5870073291774 221.41080848584238 490.1973399312765 184.97572233840862 525.1093329207472 247.12061649745425C560.0213259102177 309.2655106564999 529.1645736786369 519.706300449262 477.8812834355273 569.212454272568 "></path><path d="M512.5983996286725 262.40854416655645C544.0191933191959 318.33894890969754 516.2481163107732 507.7356597231835 470.0931550919745 552.2911981641589C423.9381938731759 596.8467366051343 322.47537946896307 532.2055334263798 291.0545857784395 476.2751286832388C259.63379208791594 420.34472394009777 273.11838415866237 328.3807938380567 319.27334537746106 283.82525539708126C365.4283065962597 239.2697169561058 481.1776059381489 206.47813942341543 512.5983996286725 262.40854416655645C544.0191933191959 318.33894890969754 516.2481163107732 507.7356597231835 470.0931550919745 552.2911981641589 "></path><path d="M500.08743581901956 277.69650235323684C528.0170302105961 327.4124176804733 503.33162842533136 495.765049514683 462.3049962308437 535.3699725733279C421.27836403635604 574.9748956319727 331.0891956770557 517.5160483619687 303.1596012854792 467.8001330347322C275.2300068939027 418.08421770749567 287.21631095678845 336.338502061237 328.2429431512761 296.7335790025922C369.26957534576377 257.12865594394736 472.15784142744315 227.98058702600036 500.08743581901956 277.69650235323684C528.0170302105961 327.4124176804733 503.33162842533136 495.765049514683 462.3049962308437 535.3699725733279 "></path><path d="M487.57650252694486 292.98443002233904C512.0148976195743 336.485855933671 490.41517105746766 483.7944087886044 454.516867887291 518.4487164649187C418.6185647171143 553.1030241412329 339.70304240272645 502.8265327799794 315.264647310097 459.3251068686475C290.82625221746764 415.82368095731556 301.3142682724926 344.29617976683926 337.21257144266934 309.641872090525C373.11087461284603 274.9875644142108 463.13810743431543 249.48300411100712 487.57650252694486 292.98443002233904C512.0148976195743 336.485855933671 490.41517105746766 483.7944087886044 454.516867887291 518.4487164649187 "></path><path d="M475.06558449365923 308.2723576914413C496.01278028734157 345.55929418686867 477.498728948393 471.8237680625259 446.7287548025273 501.52746035650955C415.95878065666153 531.2311526504932 348.3169043871863 488.1370171979902 327.36970859350396 450.85008070256276C306.42251279982156 413.56314420713545 315.41224084698587 352.25385747244144 346.18221499285164 322.5501651784578C376.95218913871736 292.84647288447417 454.1183886999769 270.98542119601393 475.06558449365923 308.2723576914413C496.01278028734157 345.55929418686867 477.498728948393 471.8237680625259 446.7287548025273 501.52746035650955 "></path><path d="M462.5546664603736 323.5603158781216C480.01066295510884 354.63276295764445 464.58228683931844 459.85315785402554 438.94064171776364 484.60623476567855C413.29899659620884 509.35931167733156 356.93076637164614 473.4475321335791 339.47476987691084 442.3750850540563C322.01877338217554 411.30263797453347 329.5102134214791 360.2115656956218 355.1518585430339 335.45848878396873C380.7935036645887 310.7054118723157 445.09866996563824 292.48786879859887 462.5546664603736 323.5603158781216C480.01066295510884 354.63276295764445 464.58228683931844 459.85315785402554 438.94064171776364 484.60623476567855 "></path><path d="M450.0437179095098 338.8482435472239C464.00851510529805 363.70620121084215 451.6658142126657 447.882517127947 431.15249811542185 467.6849786572694C410.639182018178 487.4874401865918 365.54459783852786 458.75801655158983 351.5798006427396 433.90005888797157C337.61500344695133 409.0421012243533 343.6081554783942 368.169243401224 364.12147157563805 348.3667818719016C384.6347876728819 328.56432034257915 436.0789207137216 313.9902858836056 450.0437179095098 338.8482435472239C464.00851510529805 363.70620121084215 451.6658142126657 447.882517127947 431.15249811542185 467.6849786572694 "></path><path d="M437.5327846174351 354.13618647511515C448.00638251427625 372.77965472282887 438.749356844802 435.9118916606575 423.3643697718691 450.7637378076493C407.97938269893626 465.6155839546411 374.15844456419865 444.0685162283896 363.6848466673574 425.4250479806759C353.21124877051625 406.78157973296226 357.7061127940984 376.1269363656153 373.0910998670313 361.27509021862346C388.47608693996415 346.42324407163164 427.0591867205939 335.4927182274015 437.5327846174351 354.13618647511515C448.00638251427625 372.77965472282887 438.749356844802 435.9118916606575 423.3643697718691 450.7637378076493 "></path><path d="M425.02186658414945 369.4241141442174C432.0042651820436 381.8530929760265 425.8329147357274 423.94125093457893 415.57625668710546 433.8424816992402C405.3195986384835 443.7437124639014 382.77230654865843 429.3790006464004 375.78990795076436 416.95002181459125C368.8075093528702 404.52104298278215 371.80408536859164 384.08461407121746 382.0607434172136 374.18338330655627C392.3174014658355 364.282152541895 418.0394679862553 356.9951353124083 425.02186658414945 369.4241141442174C432.0042651820436 381.8530929760265 425.8329147357274 423.94125093457893 415.57625668710546 433.8424816992402 "></path><path d="M412.5109332920747 384.7120570721087C416.0021325910218 390.9265464880133 412.9164573678637 411.9706254672895 407.7881283435527 416.92124084962006C402.65979931924176 421.8718562319507 391.3861532743292 414.6895003232002 387.8949539753822 408.47501090729565C384.4037546764351 402.26052149139105 385.9020426842958 392.0423070356087 391.03037170860676 387.09169165327813C396.15870073291774 382.1410762709475 409.01973399312766 378.4975676562041 412.5109332920747 384.7120570721087C416.0021325910218 390.9265464880133 412.9164573678637 411.9706254672895 407.7881283435527 416.92124084962006 "></path></g></svg>