<svg xmlns="http://www.w3.org/2000/svg" version="1.1" xmlns:xlink="http://www.w3.org/1999/xlink" xmlns:svgjs="http://svgjs.dev/svgjs" viewBox="0 0 800 800" opacity="1"><g stroke="hsl(0, 0%, 100%)" fill="none" stroke-linecap="round"><circle r="346.5" cx="400" cy="400" stroke-width="15" stroke-dasharray="55 19" stroke-dashoffset="25" transform="rotate(269, 400, 400)" opacity="0.53"></circle><circle r="330" cx="400" cy="400" stroke-width="14" stroke-dasharray="52 40" stroke-dashoffset="25" transform="rotate(232, 400, 400)" opacity="0.26"></circle><circle r="313.5" cx="400" cy="400" stroke-width="14" stroke-dasharray="45 53" stroke-dashoffset="25" transform="rotate(120, 400, 400)" opacity="0.94"></circle><circle r="297" cx="400" cy="400" stroke-width="14" stroke-dasharray="27 48" stroke-dashoffset="25" transform="rotate(277, 400, 400)" opacity="0.36"></circle><circle r="280.5" cx="400" cy="400" stroke-width="13" stroke-dasharray="21 20" stroke-dashoffset="25" transform="rotate(1, 400, 400)" opacity="0.11"></circle><circle r="264" cx="400" cy="400" stroke-width="13" stroke-dasharray="15 12" stroke-dashoffset="25" transform="rotate(141, 400, 400)" opacity="0.18"></circle><circle r="247.5" cx="400" cy="400" stroke-width="13" stroke-dasharray="38 29" stroke-dashoffset="25" transform="rotate(53, 400, 400)" opacity="0.81"></circle><circle r="231" cx="400" cy="400" stroke-width="12" stroke-dasharray="34 14" stroke-dashoffset="25" transform="rotate(344, 400, 400)" opacity="0.85"></circle><circle r="214.5" cx="400" cy="400" stroke-width="12" stroke-dasharray="27 30" stroke-dashoffset="25" transform="rotate(276, 400, 400)" opacity="0.18"></circle><circle r="198" cx="400" cy="400" stroke-width="12" stroke-dasharray="46 38" stroke-dashoffset="25" transform="rotate(252, 400, 400)" opacity="0.68"></circle><circle r="181.5" cx="400" cy="400" stroke-width="12" stroke-dasharray="52 31" stroke-dashoffset="25" transform="rotate(153, 400, 400)" opacity="0.86"></circle><circle r="165" cx="400" cy="400" stroke-width="11" stroke-dasharray="13 20" stroke-dashoffset="25" transform="rotate(65, 400, 400)" opacity="0.90"></circle><circle r="148.5" cx="400" cy="400" stroke-width="11" stroke-dasharray="28 33" stroke-dashoffset="25" transform="rotate(25, 400, 400)" opacity="0.58"></circle><circle r="132" cx="400" cy="400" stroke-width="11" stroke-dasharray="12 24" stroke-dashoffset="25" transform="rotate(252, 400, 400)" opacity="0.34"></circle><circle r="115.5" cx="400" cy="400" stroke-width="10" stroke-dasharray="14 13" stroke-dashoffset="25" transform="rotate(153, 400, 400)" opacity="0.75"></circle><circle r="99" cx="400" cy="400" stroke-width="10" stroke-dasharray="42 48" stroke-dashoffset="25" transform="rotate(95, 400, 400)" opacity="0.37"></circle><circle r="82.5" cx="400" cy="400" stroke-width="10" stroke-dasharray="45 46" stroke-dashoffset="25" transform="rotate(233, 400, 400)" opacity="0.61"></circle><circle r="66" cx="400" cy="400" stroke-width="9" stroke-dasharray="43 22" stroke-dashoffset="25" transform="rotate(29, 400, 400)" opacity="0.42"></circle><circle r="49.5" cx="400" cy="400" stroke-width="9" stroke-dasharray="48 45" stroke-dashoffset="25" transform="rotate(301, 400, 400)" opacity="0.84"></circle><circle r="33" cx="400" cy="400" stroke-width="9" stroke-dasharray="21 18" stroke-dashoffset="25" transform="rotate(344, 400, 400)" opacity="0.61"></circle><circle r="16.5" cx="400" cy="400" stroke-width="9" stroke-dasharray="23 24" stroke-dashoffset="25" transform="rotate(178, 400, 400)" opacity="0.56"></circle></g></svg>