<svg id="visual" viewBox="0 0 760 590" width="760" height="590" xmlns="http://www.w3.org/2000/svg" xmlns:xlink="http://www.w3.org/1999/xlink" version="1.1"><rect x="0" y="0" width="760" height="590" fill="#ffffff"></rect><path d="M0 476L15.8 478C31.7 480 63.3 484 95 489.2C126.7 494.3 158.3 500.7 190 497.5C221.7 494.3 253.3 481.7 285 486.5C316.7 491.3 348.3 513.7 380 522.7C411.7 531.7 443.3 527.3 475 516.7C506.7 506 538.3 489 570 485C601.7 481 633.3 490 665 488C696.7 486 728.3 473 744.2 466.5L760 460L760 591L744.2 591C728.3 591 696.7 591 665 591C633.3 591 601.7 591 570 591C538.3 591 506.7 591 475 591C443.3 591 411.7 591 380 591C348.3 591 316.7 591 285 591C253.3 591 221.7 591 190 591C158.3 591 126.7 591 95 591C63.3 591 31.7 591 15.8 591L0 591Z" fill="#277e0e" stroke-linecap="round" stroke-linejoin="miter"></path></svg>